<?xml version="1.0" encoding="iso-8859-1"?>
<!-- Generator: Adobe Illustrator 18.0.0, SVG Export Plug-In . SVG Version: 6.00 Build 0)  -->
<!DOCTYPE svg PUBLIC "-//W3C//DTD SVG 1.1//EN" "http://www.w3.org/Graphics/SVG/1.1/DTD/svg11.dtd">
<svg version="1.1" id="Capa_1" xmlns="http://www.w3.org/2000/svg" xmlns:xlink="http://www.w3.org/1999/xlink" x="0px" y="0px"
	 viewBox="0 0 297 297" style="enable-background:new 0 0 297 297;" xml:space="preserve">
<g>
	<path d="M252.677,0H132.673c-13.796,0-25.02,11.229-25.02,25.031v65.635c0,13.801,11.224,25.029,25.02,25.029h12.403v19.343
		c0,4.115,2.479,7.824,6.28,9.398c1.259,0.521,2.579,0.774,3.89,0.774c2.648,0,5.252-1.035,7.198-2.983l26.508-26.531h63.725
		c13.796,0,25.021-11.229,25.021-25.029V25.031C277.697,11.229,266.473,0,252.677,0z"/>
	<path d="M95.278,218.645c23.484-3.623,41.522-23.983,41.522-48.484c0-27.052-21.991-49.06-49.022-49.06
		c-27.033,0-49.027,22.008-49.027,49.06c0,24.499,18.041,44.86,41.526,48.484c-17.315,1.5-32.503,8.223-43.331,19.306
		c-11.99,12.274-18.083,29.257-17.619,49.114C19.456,292.59,23.971,297,29.496,297h116.556c5.525,0,10.041-4.412,10.169-9.935
		c0.461-19.86-5.634-36.845-17.626-49.118C127.77,226.866,112.587,220.146,95.278,218.645z"/>
</g>
<g>
</g>
<g>
</g>
<g>
</g>
<g>
</g>
<g>
</g>
<g>
</g>
<g>
</g>
<g>
</g>
<g>
</g>
<g>
</g>
<g>
</g>
<g>
</g>
<g>
</g>
<g>
</g>
<g>
</g>
</svg>
